<svg id="my-svg" width="100%" xmlns="http://www.w3.org/2000/svg" xmlns:xlink="http://www.w3.org/1999/xlink" class="flowchart" style="max-width: 1848.47px; background-color: transparent;" viewBox="-32 -32 1848.46875 438.375" role="graphics-document document" aria-roledescription="flowchart-v2"><style>#my-svg{font-family:Inter,Helvetica,Arial;font-size:13px;fill:#e6edf3;}@keyframes edge-animation-frame{from{stroke-dashoffset:0;}}@keyframes dash{to{stroke-dashoffset:0;}}#my-svg .edge-animation-slow{stroke-dasharray:9,5!important;stroke-dashoffset:900;animation:dash 50s linear infinite;stroke-linecap:round;}#my-svg .edge-animation-fast{stroke-dasharray:9,5!important;stroke-dashoffset:900;animation:dash 20s linear infinite;stroke-linecap:round;}#my-svg .error-icon{fill:hsl(36, 20%, 14.8039215686%);}#my-svg .error-text{fill:rgb(209.7000000001, 215.7400000001, 224.8000000001);stroke:rgb(209.7000000001, 215.7400000001, 224.8000000001);}#my-svg .edge-thickness-normal{stroke-width:1px;}#my-svg .edge-thickness-thick{stroke-width:3.5px;}#my-svg .edge-pattern-solid{stroke-dasharray:0;}#my-svg .edge-thickness-invisible{stroke-width:0;fill:none;}#my-svg .edge-pattern-dashed{stroke-dasharray:3;}#my-svg .edge-pattern-dotted{stroke-dasharray:2;}#my-svg .marker{fill:#3d444d;stroke:#3d444d;}#my-svg .marker.cross{stroke:#3d444d;}#my-svg svg{font-family:Inter,Helvetica,Arial;font-size:13px;}#my-svg p{margin:0;}#my-svg .label{font-family:Inter,Helvetica,Arial;color:#e6edf3;}#my-svg .cluster-label text{fill:#9198a1;}#my-svg .cluster-label span{color:#9198a1;}#my-svg .cluster-label span p{background-color:transparent;}#my-svg .label text,#my-svg span{fill:#e6edf3;color:#e6edf3;}#my-svg .node rect,#my-svg .node circle,#my-svg .node ellipse,#my-svg .node polygon,#my-svg .node path{fill:#14181e;stroke:#383d43;stroke-width:1px;}#my-svg .rough-node .label text,#my-svg .node .label text,#my-svg .image-shape .label,#my-svg .icon-shape .label{text-anchor:middle;}#my-svg .node .katex path{fill:#000;stroke:#000;stroke-width:1px;}#my-svg .rough-node .label,#my-svg .node .label,#my-svg .image-shape .label,#my-svg .icon-shape .label{text-align:center;}#my-svg .node.clickable{cursor:pointer;}#my-svg .root .anchor path{fill:#3d444d!important;stroke-width:0;stroke:#3d444d;}#my-svg .arrowheadPath{fill:#f2eee8;}#my-svg .edgePaths .path{stroke:#3d444d;stroke-width:1px;}#my-svg .flowchart-link{stroke:#3d444d;fill:none;}#my-svg .edgeLabel{background-color:#0d1117;text-align:center;}#my-svg .edgeLabel p{background-color:#0d1117;}#my-svg .edgeLabel rect{opacity:0.5;background-color:#0d1117;fill:#0d1117;}#my-svg .labelBkg{background-color:rgba(13, 17, 23, 0.5);}#my-svg .cluster rect{fill:#0d1117;stroke:#383d43;stroke-width:1px;}#my-svg .cluster text{fill:#9198a1;}#my-svg .cluster span{color:#9198a1;}#my-svg .node .collapsed-indicator{fill:#383d43;stroke:none;opacity:0.6;}#my-svg .node .collapsed-separator{stroke:#383d43;stroke-width:0.75px;}#my-svg div.mermaidTooltip{position:absolute;text-align:center;max-width:200px;padding:2px;font-family:Inter,Helvetica,Arial;font-size:12px;background:hsl(36, 20%, 14.8039215686%);border:1px solid hsl(36, 0%, 24.8039215686%);border-radius:2px;pointer-events:none;z-index:100;}#my-svg .flowchartTitleText{text-anchor:middle;font-size:18px;fill:#e6edf3;}#my-svg rect.text{fill:none;stroke-width:0;}#my-svg .icon-shape,#my-svg .image-shape{background-color:#0d1117;text-align:center;}#my-svg .icon-shape p,#my-svg .image-shape p{background-color:#0d1117;padding:2px;}#my-svg .icon-shape .label rect,#my-svg .image-shape .label rect{opacity:0.5;background-color:#0d1117;fill:#0d1117;}#my-svg .label-icon{display:inline-block;height:1em;overflow:visible;vertical-align:-0.125em;}#my-svg .node .label-icon path{fill:currentColor;stroke:revert;stroke-width:revert;}#my-svg .node .neo-node{stroke:#383d43;}#my-svg [data-look="neo"].node rect,#my-svg [data-look="neo"].cluster rect,#my-svg [data-look="neo"].node polygon{stroke:url(#my-svg-gradient);filter:none;}#my-svg [data-look="neo"].swimlane.cluster rect{filter:none;}#my-svg [data-look="neo"].node path{stroke:url(#my-svg-gradient);stroke-width:1px;}#my-svg [data-look="neo"].node .outer-path{filter:none;}#my-svg [data-look="neo"].node .neo-line path{stroke:#383d43;filter:none;}#my-svg [data-look="neo"].node circle{stroke:url(#my-svg-gradient);filter:none;}#my-svg [data-look="neo"].node circle .state-start{fill:#000000;}#my-svg [data-look="neo"].icon-shape .icon{fill:url(#my-svg-gradient);filter:none;}#my-svg [data-look="neo"].icon-shape .icon-neo path{stroke:url(#my-svg-gradient);filter:none;}#my-svg :root{--mermaid-font-family:"trebuchet ms",verdana,arial,sans-serif;}#my-svg .default&gt;*{fill:rgb(20, 24, 30)!important;stroke:rgb(56, 61, 67)!important;stroke-width:0.75px!important;color:rgb(230, 237, 243)!important;font-weight:500!important;}#my-svg .default span{fill:rgb(20, 24, 30)!important;stroke:rgb(56, 61, 67)!important;stroke-width:0.75px!important;color:rgb(230, 237, 243)!important;font-weight:500!important;}#my-svg .default tspan{fill:rgb(230, 237, 243)!important;}#my-svg .added&gt;*{fill:rgb(18, 34, 29)!important;stroke:rgb(63, 185, 80)!important;stroke-width:1px!important;color:rgb(230, 237, 243)!important;font-weight:500!important;}#my-svg .added span{fill:rgb(18, 34, 29)!important;stroke:rgb(63, 185, 80)!important;stroke-width:1px!important;color:rgb(230, 237, 243)!important;font-weight:500!important;}#my-svg .added tspan{fill:rgb(230, 237, 243)!important;}#my-svg .modified&gt;*{fill:rgb(33, 31, 24)!important;stroke:rgb(210, 153, 34)!important;stroke-width:1px!important;color:rgb(230, 237, 243)!important;font-weight:500!important;}#my-svg .modified span{fill:rgb(33, 31, 24)!important;stroke:rgb(210, 153, 34)!important;stroke-width:1px!important;color:rgb(230, 237, 243)!important;font-weight:500!important;}#my-svg .modified tspan{fill:rgb(230, 237, 243)!important;}#my-svg .removed&gt;*{fill:rgb(36, 23, 28)!important;stroke:rgb(248, 81, 73)!important;stroke-width:1px!important;stroke-dasharray:4,4!important;color:rgb(230, 237, 243)!important;font-weight:500!important;}#my-svg .removed span{fill:rgb(36, 23, 28)!important;stroke:rgb(248, 81, 73)!important;stroke-width:1px!important;stroke-dasharray:4,4!important;color:rgb(230, 237, 243)!important;font-weight:500!important;}#my-svg .removed tspan{fill:rgb(230, 237, 243)!important;}#my-svg .context&gt;*{fill:rgb(20, 24, 30)!important;stroke:rgb(56, 61, 67)!important;stroke-width:0.75px!important;color:rgb(145, 152, 161)!important;font-weight:500!important;}#my-svg .context span{fill:rgb(20, 24, 30)!important;stroke:rgb(56, 61, 67)!important;stroke-width:0.75px!important;color:rgb(145, 152, 161)!important;font-weight:500!important;}#my-svg .context tspan{fill:rgb(145, 152, 161)!important;}#my-svg .risk&gt;*{fill:rgb(20, 24, 30)!important;stroke:rgb(248, 81, 73)!important;stroke-width:2px!important;color:rgb(230, 237, 243)!important;font-weight:500!important;}#my-svg .risk span{fill:rgb(20, 24, 30)!important;stroke:rgb(248, 81, 73)!important;stroke-width:2px!important;color:rgb(230, 237, 243)!important;font-weight:500!important;}#my-svg .risk tspan{fill:rgb(230, 237, 243)!important;}#my-svg .riskadded&gt;*{fill:rgb(18, 34, 29)!important;stroke:rgb(248, 81, 73)!important;stroke-width:2px!important;color:rgb(230, 237, 243)!important;font-weight:500!important;}#my-svg .riskadded span{fill:rgb(18, 34, 29)!important;stroke:rgb(248, 81, 73)!important;stroke-width:2px!important;color:rgb(230, 237, 243)!important;font-weight:500!important;}#my-svg .riskadded tspan{fill:rgb(230, 237, 243)!important;}#my-svg .zone&gt;*{fill:rgb(13, 17, 23)!important;stroke:rgb(56, 61, 67)!important;stroke-width:1px!important;color:rgb(145, 152, 161)!important;font-weight:600!important;font-size:12px!important;}#my-svg .zone span{fill:rgb(13, 17, 23)!important;stroke:rgb(56, 61, 67)!important;stroke-width:1px!important;color:rgb(145, 152, 161)!important;font-weight:600!important;font-size:12px!important;}#my-svg .zone tspan{fill:rgb(145, 152, 161)!important;}</style><g><marker id="my-svg_flowchart-v2-pointEnd" class="marker flowchart-v2" viewBox="0 0 10 10" refX="5" refY="5" markerUnits="userSpaceOnUse" markerWidth="8" markerHeight="8" orient="auto"><path d="M 0 0 L 10 5 L 0 10 z" class="arrowMarkerPath" style="stroke-width: 1; stroke-dasharray: 1, 0;"/></marker><marker id="my-svg_flowchart-v2-pointStart" class="marker flowchart-v2" viewBox="0 0 10 10" refX="4.5" refY="5" markerUnits="userSpaceOnUse" markerWidth="8" markerHeight="8" orient="auto"><path d="M 0 5 L 10 10 L 10 0 z" class="arrowMarkerPath" style="stroke-width: 1; stroke-dasharray: 1, 0;"/></marker><marker id="my-svg_flowchart-v2-pointEnd-margin" class="marker flowchart-v2" viewBox="0 0 11.5 14" refX="11.5" refY="7" markerUnits="userSpaceOnUse" markerWidth="10.5" markerHeight="14" orient="auto"><path d="M 0 0 L 11.5 7 L 0 14 z" class="arrowMarkerPath" style="stroke-width: 0; stroke-dasharray: 1, 0;"/></marker><marker id="my-svg_flowchart-v2-pointStart-margin" class="marker flowchart-v2" viewBox="0 0 11.5 14" refX="1" refY="7" markerUnits="userSpaceOnUse" markerWidth="11.5" markerHeight="14" orient="auto"><polygon points="0,7 11.5,14 11.5,0" class="arrowMarkerPath" style="stroke-width: 0; stroke-dasharray: 1, 0;"/></marker><marker id="my-svg_flowchart-v2-circleEnd" class="marker flowchart-v2" viewBox="0 0 10 10" refX="11" refY="5" markerUnits="userSpaceOnUse" markerWidth="11" markerHeight="11" orient="auto"><circle cx="5" cy="5" r="5" class="arrowMarkerPath" style="stroke-width: 1; stroke-dasharray: 1, 0;"/></marker><marker id="my-svg_flowchart-v2-circleStart" class="marker flowchart-v2" viewBox="0 0 10 10" refX="-1" refY="5" markerUnits="userSpaceOnUse" markerWidth="11" markerHeight="11" orient="auto"><circle cx="5" cy="5" r="5" class="arrowMarkerPath" style="stroke-width: 1; stroke-dasharray: 1, 0;"/></marker><marker id="my-svg_flowchart-v2-circleEnd-margin" class="marker flowchart-v2" viewBox="0 0 10 10" refY="5" refX="12.25" markerUnits="userSpaceOnUse" markerWidth="14" markerHeight="14" orient="auto"><circle cx="5" cy="5" r="5" class="arrowMarkerPath" style="stroke-width: 0; stroke-dasharray: 1, 0;"/></marker><marker id="my-svg_flowchart-v2-circleStart-margin" class="marker flowchart-v2" viewBox="0 0 10 10" refX="-2" refY="5" markerUnits="userSpaceOnUse" markerWidth="14" markerHeight="14" orient="auto"><circle cx="5" cy="5" r="5" class="arrowMarkerPath" style="stroke-width: 0; stroke-dasharray: 1, 0;"/></marker><marker id="my-svg_flowchart-v2-crossEnd" class="marker cross flowchart-v2" viewBox="0 0 11 11" refX="12" refY="5.2" markerUnits="userSpaceOnUse" markerWidth="11" markerHeight="11" orient="auto"><path d="M 1,1 l 9,9 M 10,1 l -9,9" class="arrowMarkerPath" style="stroke-width: 2; stroke-dasharray: 1, 0;"/></marker><marker id="my-svg_flowchart-v2-crossStart" class="marker cross flowchart-v2" viewBox="0 0 11 11" refX="-1" refY="5.2" markerUnits="userSpaceOnUse" markerWidth="11" markerHeight="11" orient="auto"><path d="M 1,1 l 9,9 M 10,1 l -9,9" class="arrowMarkerPath" style="stroke-width: 2; stroke-dasharray: 1, 0;"/></marker><marker id="my-svg_flowchart-v2-crossEnd-margin" class="marker cross flowchart-v2" viewBox="0 0 15 15" refX="17.7" refY="7.5" markerUnits="userSpaceOnUse" markerWidth="12" markerHeight="12" orient="auto"><path d="M 1,1 L 14,14 M 1,14 L 14,1" class="arrowMarkerPath" style="stroke-width: 2.5;"/></marker><marker id="my-svg_flowchart-v2-crossStart-margin" class="marker cross flowchart-v2" viewBox="0 0 15 15" refX="-3.5" refY="7.5" markerUnits="userSpaceOnUse" markerWidth="12" markerHeight="12" orient="auto"><path d="M 1,1 L 14,14 M 1,14 L 14,1" class="arrowMarkerPath" style="stroke-width: 2.5; stroke-dasharray: 1, 0;"/></marker><g class="root"><g class="clusters"><g class="cluster zone" id="my-svg-OUT" data-look="classic"><rect style="fill:#0d1117 !important;stroke:#383d43 !important;stroke-width:1px !important" x="1654.96875" y="41.21864604949951" width="121.5" height="322.0313539505005"/><g class="cluster-label" transform="translate(1696.0546875, 41.21864604949951)"><foreignObject width="39.328125" height="18"><div xmlns="http://www.w3.org/1999/xhtml" style="display: table-cell; white-space: nowrap; line-height: 1.5;"><span class="nodeLabel" style="color:#9198a1 !important;font-weight:600 !important;font-size:12px !important"><p>Output</p></span></div></foreignObject></g></g><g class="cluster zone" id="my-svg-FN" data-look="classic"><rect style="fill:#0d1117 !important;stroke:#383d43 !important;stroke-width:1px !important" x="996.03125" y="43.875" width="610.9375" height="322.5"/><g class="cluster-label" transform="translate(1272.8359375, 43.875)"><foreignObject width="57.328125" height="18"><div xmlns="http://www.w3.org/1999/xhtml" style="display: table-cell; white-space: nowrap; line-height: 1.5;"><span class="nodeLabel" style="color:#9198a1 !important;font-weight:600 !important;font-size:12px !important"><p>Functions</p></span></div></foreignObject></g></g><g class="cluster zone" id="my-svg-IN" data-look="classic"><rect style="fill:#0d1117 !important;stroke:#383d43 !important;stroke-width:1px !important" x="8" y="154.5" width="940.03125" height="82.5"/><g class="cluster-label" transform="translate(463.3515625, 154.5)"><foreignObject width="29.328125" height="18"><div xmlns="http://www.w3.org/1999/xhtml" style="display: table-cell; white-space: nowrap; line-height: 1.5;"><span class="nodeLabel" style="color:#9198a1 !important;font-weight:600 !important;font-size:12px !important"><p>Input</p></span></div></foreignObject></g></g></g><g class="edgePaths"><path d="M510.202,196.25L729.117,196.25L729.117,195.75L960.031,195.75L960.031,195.75L984.031,195.75L984.031,195.75L1006.031,195.75L1006.031,195.75L1016.031,195.75" id="my-svg-L_I1_F1_0" class="edge-thickness-thick edge-pattern-solid edge-thickness-normal edge-pattern-solid flowchart-link" style="stroke:#3d444d;stroke-width:2px;fill:none;;;stroke:#3d444d;stroke-width:2px;fill:none" data-edge="true" data-et="edge" data-id="L_I1_F1_0" data-points="W3sieCI6NTEwLjIwMjA3NTQwODAyOTQzLCJ5IjoxOTYuMjV9LHsieCI6OTQ4LjAzMTI1LCJ5IjoxOTUuNzV9LHsieCI6OTcyLjAzMTI1LCJ5IjoxOTUuNzV9LHsieCI6OTk2LjAzMTI1LCJ5IjoxOTUuNzV9LHsieCI6MTAyMC4wMzEyNSwieSI6MTk1Ljc1fV0=" data-look="classic" marker-end="url(#my-svg_flowchart-v2-pointEnd__3d444d)"/><path d="M1103.874,220.5L1139.015,220.5L1139.015,313.125L1190.301,313.125L1190.301,313.125L1206.445,313.125" id="my-svg-L_F1_F2_0" class="edge-thickness-normal edge-pattern-solid edge-thickness-normal edge-pattern-solid flowchart-link" style="stroke:#3d444d;stroke-width:1px;fill:none;;;stroke:#3d444d;stroke-width:1px;fill:none" data-edge="true" data-et="edge" data-id="L_F1_F2_0" data-points="W3sieCI6MTEwMy44NzM3MDIwNzY2NzczLCJ5IjoyMjAuNX0seyJ4IjoxMTc0LjE1NjI1LCJ5IjozMTMuMTI1fSx7IngiOjEyMTAuNDQ1MzEyNSwieSI6MzEzLjEyNX1d" data-look="classic" marker-end="url(#my-svg_flowchart-v2-pointEnd__3d444d)"/><path d="M1140.374,220.5L1157.265,220.5L1157.265,235.625L1186.027,235.625L1186.027,235.625L1197.898,235.625" id="my-svg-L_F1_F4_0" class="edge-thickness-normal edge-pattern-solid edge-thickness-normal edge-pattern-solid flowchart-link" style="stroke:#3d444d;stroke-width:1px;fill:none;;;stroke:#3d444d;stroke-width:1px;fill:none" data-edge="true" data-et="edge" data-id="L_F1_F4_0" data-points="W3sieCI6MTE0MC4zNzM5MjI0MTM3OTMsInkiOjIyMC41fSx7IngiOjExNzQuMTU2MjUsInkiOjIzNS42MjV9LHsieCI6MTIwMS44OTg0Mzc1LCJ5IjoyMzUuNjI1fV0=" data-look="classic" marker-end="url(#my-svg_flowchart-v2-pointEnd__3d444d)"/><path d="M1339.82,313.125L1357.965,313.125L1357.965,313.125L1386.109,313.125L1386.109,313.125L1396.109,313.125" id="my-svg-L_F2_F5_0" class="edge-thickness-normal edge-pattern-solid edge-thickness-normal edge-pattern-solid flowchart-link" style="stroke:#3d444d;stroke-width:1px;fill:none;;;stroke:#3d444d;stroke-width:1px;fill:none" data-edge="true" data-et="edge" data-id="L_F2_F5_0" data-points="W3sieCI6MTMzOS44MjAzMTI1LCJ5IjozMTMuMTI1fSx7IngiOjEzNzYuMTA5Mzc1LCJ5IjozMTMuMTI1fSx7IngiOjE0MDAuMTA5Mzc1LCJ5IjozMTMuMTI1fV0=" data-look="classic" marker-end="url(#my-svg_flowchart-v2-pointEnd__3d444d)"/><path d="M1110.614,171L1142.385,171L1142.385,109.375L1224.645,109.375L1224.645,109.375L1325.621,109.375L1325.621,109.375L1401.285,109.375L1401.285,109.375L1426.461,109.375" id="my-svg-L_F1_F6_0" class="edge-thickness-thick edge-pattern-solid edge-thickness-normal edge-pattern-solid flowchart-link" style="stroke:#3d444d;stroke-width:2px;fill:none;;;stroke:#3d444d;stroke-width:2px;fill:none" data-edge="true" data-et="edge" data-id="L_F1_F6_0" data-points="W3sieCI6MTExMC42MTM4Mjk1OTQ3OSwieSI6MTcxfSx7IngiOjExNzQuMTU2MjUsInkiOjEwOS4zNzV9LHsieCI6MTI3NS4xMzI4MTI1LCJ5IjoxMDkuMzc1fSx7IngiOjEzNzYuMTA5Mzc1LCJ5IjoxMDkuMzc1fSx7IngiOjE0MzAuNDYwOTM3NSwieSI6MTA5LjM3NX1d" data-look="classic" marker-end="url(#my-svg_flowchart-v2-pointEnd__3d444d)"/><path d="M1143.68,171L1158.918,171L1158.918,158.125L1184.156,158.125L1184.156,158.125L1194.156,158.125" id="my-svg-L_F1_F3_0" class="edge-thickness-normal edge-pattern-dotted edge-thickness-normal edge-pattern-solid flowchart-link" style="stroke:#3d444d;stroke-width:1px;stroke-dasharray:4 4;fill:none;;;stroke:#3d444d;stroke-width:1px;stroke-dasharray:4 4;fill:none" data-edge="true" data-et="edge" data-id="L_F1_F3_0" data-points="W3sieCI6MTE0My42Nzk3MTM0NTUxNDk2LCJ5IjoxNzF9LHsieCI6MTE3NC4xNTYyNSwieSI6MTU4LjEyNX0seyJ4IjoxMTk4LjE1NjI1LCJ5IjoxNTguMTI1fV0=" data-look="classic" marker-end="url(#my-svg_flowchart-v2-pointEnd__3d444d)"/><path d="M1552.617,98.197L1579.793,98.197L1579.793,88.25L1618.969,88.25L1618.969,88.25L1642.969,88.25L1642.969,88.25L1667.152,88.25L1667.152,92.261L1679.334,92.261" id="my-svg-L_F6_O1_0" class="edge-thickness-thick edge-pattern-solid edge-thickness-normal edge-pattern-solid flowchart-link" style="stroke:#3d444d;stroke-width:2px;fill:none;;;stroke:#3d444d;stroke-width:2px;fill:none" data-edge="true" data-et="edge" data-id="L_F6_O1_0" data-points="W3sieCI6MTU1Mi42MTcxODc1LCJ5Ijo5OC4xOTY5Nzk2OTU0MzE0N30seyJ4IjoxNjA2Ljk2ODc1LCJ5Ijo4OC4yNX0seyJ4IjoxNjMwLjk2ODc1LCJ5Ijo4OC4yNX0seyJ4IjoxNjU0Ljk2ODc1LCJ5Ijo4OC4yNX0seyJ4IjoxNjgzLjI4MTI1LCJ5Ijo5Mi45MTA0OTM4MjcxNjA1fV0=" data-look="classic" marker-end="url(#my-svg_flowchart-v2-pointEnd__3d444d)"/><path d="M1517.335,134.125L1562.152,134.125L1562.152,220.125L1618.969,220.125L1618.969,220.125L1642.969,220.125L1642.969,220.125L1679.423,220.125L1679.423,301.818L1703.878,301.818" id="my-svg-L_F6_O2_0" class="edge-thickness-thick edge-pattern-solid edge-thickness-normal edge-pattern-solid flowchart-link" style="stroke:#3d444d;stroke-width:2px;fill:none;;;stroke:#3d444d;stroke-width:2px;fill:none" data-edge="true" data-et="edge" data-id="L_F6_O2_0" data-points="W3sieCI6MTUxNy4zMzQ4NjE3MzgxNDksInkiOjEzNC4xMjV9LHsieCI6MTYwNi45Njg3NSwieSI6MjIwLjEyNX0seyJ4IjoxNjMwLjk2ODc1LCJ5IjoyMjAuMTI1fSx7IngiOjE2NTQuOTY4NzUsInkiOjIyMC4xMjV9LHsieCI6MTcwNS45MzIyNDY5MzI1MTUyLCJ5IjozMDUuMjV9XQ==" data-look="classic" marker-end="url(#my-svg_flowchart-v2-pointEnd__3d444d)"/><path d="M1516.821,288.375L1561.895,288.375L1561.895,200.125L1618.969,200.125L1618.969,200.125L1642.969,200.125L1642.969,200.125L1676.38,200.125L1676.38,126.89L1697.792,126.89" id="my-svg-L_F5_O1_0" class="edge-thickness-invisible edge-pattern-solid" style=";" data-edge="true" data-et="edge" data-id="L_F5_O1_0" data-points="W3sieCI6MTUxNi44MjEyMjg1Njc0Nzc5LCJ5IjoyODguMzc1fSx7IngiOjE2MDYuOTY4NzUsInkiOjIwMC4xMjV9LHsieCI6MTYzMC45Njg3NSwieSI6MjAwLjEyNX0seyJ4IjoxNjU0Ljk2ODc1LCJ5IjoyMDAuMTI1fSx7IngiOjE2OTcuNzkxNzg1NTMzODgxNywieSI6MTI2Ljg4OTY5MTg5NDA4Mjk3fV0=" data-look="classic"/><path d="M1582.969,328.076L1594.969,328.076L1594.969,332L1618.969,332L1618.969,332L1642.969,332L1642.969,332L1670.27,332L1670.27,327.545L1685.571,327.545" id="my-svg-L_F5_O2_0" class="edge-thickness-invisible edge-pattern-solid" style=";" data-edge="true" data-et="edge" data-id="L_F5_O2_0" data-points="W3sieCI6MTU4Mi45Njg3NSwieSI6MzI4LjA3NTUzMjk5NDkyMzgzfSx7IngiOjE2MDYuOTY4NzUsInkiOjMzMn0seyJ4IjoxNjMwLjk2ODc1LCJ5IjozMzJ9LHsieCI6MTY1NC45Njg3NSwieSI6MzMyfSx7IngiOjE2ODUuNTcxMzI4NDc1MzM2MywieSI6MzI3LjU0NDg0MzA0OTMyNzM3fV0=" data-look="classic"/></g><g class="edgeLabels"><g class="edgeLabel"><g class="label" data-id="L_I1_F1_0" transform="translate(0, 0)"><foreignObject width="0" height="0"><div xmlns="http://www.w3.org/1999/xhtml" class="labelBkg" style="display: table-cell; white-space: nowrap; line-height: 1.5; max-width: 200px; text-align: center;"><span class="edgeLabel"></span></div></foreignObject></g></g><g class="edgeLabel"><g class="label" data-id="L_F1_F2_0" transform="translate(0, 0)"><foreignObject width="0" height="0"><div xmlns="http://www.w3.org/1999/xhtml" class="labelBkg" style="display: table-cell; white-space: nowrap; line-height: 1.5; max-width: 200px; text-align: center;"><span class="edgeLabel"></span></div></foreignObject></g></g><g class="edgeLabel"><g class="label" data-id="L_F1_F4_0" transform="translate(0, 0)"><foreignObject width="0" height="0"><div xmlns="http://www.w3.org/1999/xhtml" class="labelBkg" style="display: table-cell; white-space: nowrap; line-height: 1.5; max-width: 200px; text-align: center;"><span class="edgeLabel"></span></div></foreignObject></g></g><g class="edgeLabel"><g class="label" data-id="L_F2_F5_0" transform="translate(0, 0)"><foreignObject width="0" height="0"><div xmlns="http://www.w3.org/1999/xhtml" class="labelBkg" style="display: table-cell; white-space: nowrap; line-height: 1.5; max-width: 200px; text-align: center;"><span class="edgeLabel"></span></div></foreignObject></g></g><g class="edgeLabel"><g class="label" data-id="L_F1_F6_0" transform="translate(0, 0)"><foreignObject width="0" height="0"><div xmlns="http://www.w3.org/1999/xhtml" class="labelBkg" style="display: table-cell; white-space: nowrap; line-height: 1.5; max-width: 200px; text-align: center;"><span class="edgeLabel"></span></div></foreignObject></g></g><g class="edgeLabel"><g class="label" data-id="L_F1_F3_0" transform="translate(0, 0)"><foreignObject width="0" height="0"><div xmlns="http://www.w3.org/1999/xhtml" class="labelBkg" style="display: table-cell; white-space: nowrap; line-height: 1.5; max-width: 200px; text-align: center;"><span class="edgeLabel"></span></div></foreignObject></g></g><g class="edgeLabel"><g class="label" data-id="L_F6_O1_0" transform="translate(0, 0)"><foreignObject width="0" height="0"><div xmlns="http://www.w3.org/1999/xhtml" class="labelBkg" style="display: table-cell; white-space: nowrap; line-height: 1.5; max-width: 200px; text-align: center;"><span class="edgeLabel"></span></div></foreignObject></g></g><g class="edgeLabel"><g class="label" data-id="L_F6_O2_0" transform="translate(0, 0)"><foreignObject width="0" height="0"><div xmlns="http://www.w3.org/1999/xhtml" class="labelBkg" style="display: table-cell; white-space: nowrap; line-height: 1.5; max-width: 200px; text-align: center;"><span class="edgeLabel"></span></div></foreignObject></g></g><g class="edgeLabel"><g class="label" data-id="L_F5_O1_0" transform="translate(0, 0)"><foreignObject width="0" height="0"><div xmlns="http://www.w3.org/1999/xhtml" class="labelBkg" style="display: table-cell; white-space: nowrap; line-height: 1.5; max-width: 200px; text-align: center;"><span class="edgeLabel"></span></div></foreignObject></g></g><g class="edgeLabel"><g class="label" data-id="L_F5_O2_0" transform="translate(0, 0)"><foreignObject width="0" height="0"><div xmlns="http://www.w3.org/1999/xhtml" class="labelBkg" style="display: table-cell; white-space: nowrap; line-height: 1.5; max-width: 200px; text-align: center;"><span class="edgeLabel"></span></div></foreignObject></g></g></g><g class="nodes"><g class="root" transform="translate(24, 0)"><g class="clusters"><g class="cluster zone" id="my-svg-LEG" data-look="classic"><rect style="fill:#0d1117 !important;stroke:#383d43 !important;stroke-width:1px !important" x="8" y="8" width="892.03125" height="122.5"/><g class="cluster-label" transform="translate(432.6796875, 8)"><foreignObject width="42.671875" height="18"><div xmlns="http://www.w3.org/1999/xhtml" style="display: table-cell; white-space: nowrap; line-height: 1.5;"><span class="nodeLabel" style="color:#9198a1 !important;font-weight:600 !important;font-size:12px !important"><p>Legend</p></span></div></foreignObject></g></g></g><g class="edgePaths"/><g class="edgeLabels"/><g class="nodes"><g class="node default added" id="my-svg-flowchart-L1-29" data-look="classic" transform="translate(80.078125, 69.25)"><rect class="basic label-container" style="fill:#12221d !important;stroke:#3fb950 !important;stroke-width:1px !important" x="-48.078125" y="-24.75" width="96.15625" height="49.5"/><g class="label" style="color:#e6edf3 !important;font-weight:500 !important" transform="translate(-18.078125, -9.75)"><rect/><foreignObject width="36.15625" height="19.5"><div style="color: rgb(230, 237, 243) !important; font-weight: 500 !important; display: table-cell; white-space: nowrap; line-height: 1.5; max-width: 200px; text-align: center;" xmlns="http://www.w3.org/1999/xhtml"><span style="color:#e6edf3 !important;font-weight:500 !important" class="nodeLabel"><p>added</p></span></div></foreignObject></g></g><g class="node default modified" id="my-svg-flowchart-L2-30" data-look="classic" transform="translate(210.7265625, 69.25)"><rect class="basic label-container" style="fill:#211f18 !important;stroke:#d29922 !important;stroke-width:1px !important" x="-54.5703125" y="-24.75" width="109.140625" height="49.5"/><g class="label" style="color:#e6edf3 !important;font-weight:500 !important" transform="translate(-24.5703125, -9.75)"><rect/><foreignObject width="49.140625" height="19.5"><div style="color: rgb(230, 237, 243) !important; font-weight: 500 !important; display: table-cell; white-space: nowrap; line-height: 1.5; max-width: 200px; text-align: center;" xmlns="http://www.w3.org/1999/xhtml"><span style="color:#e6edf3 !important;font-weight:500 !important" class="nodeLabel"><p>modified</p></span></div></foreignObject></g></g><g class="node default removed" id="my-svg-flowchart-L3-31" data-look="classic" transform="translate(348.5859375, 69.25)"><rect class="basic label-container" style="fill:#24171c !important;stroke:#f85149 !important;stroke-width:1px !important;stroke-dasharray:4 4 !important" x="-55.2890625" y="-24.75" width="110.578125" height="49.5"/><g class="label" style="color:#e6edf3 !important;font-weight:500 !important" transform="translate(-25.2890625, -9.75)"><rect/><foreignObject width="50.578125" height="19.5"><div style="color: rgb(230, 237, 243) !important; font-weight: 500 !important; display: table-cell; white-space: nowrap; line-height: 1.5; max-width: 200px; text-align: center;" xmlns="http://www.w3.org/1999/xhtml"><span style="color:#e6edf3 !important;font-weight:500 !important" class="nodeLabel"><p>removed</p></span></div></foreignObject></g></g><g class="node default context" id="my-svg-flowchart-L4-32" data-look="classic" transform="translate(516.8125, 69.25)"><rect class="basic label-container" style="fill:#14181e !important;stroke:#383d43 !important;stroke-width:0.75px !important" x="-84.9375" y="-24.75" width="169.875" height="49.5"/><g class="label" style="color:#9198a1 !important;font-weight:500 !important" transform="translate(-54.9375, -9.75)"><rect/><foreignObject width="109.875" height="19.5"><div style="color: rgb(145, 152, 161) !important; font-weight: 500 !important; display: table-cell; white-space: nowrap; line-height: 1.5; max-width: 200px; text-align: center;" xmlns="http://www.w3.org/1999/xhtml"><span style="color:#9198a1 !important;font-weight:500 !important" class="nodeLabel"><p>unchanged context</p></span></div></foreignObject></g></g><g class="node default risk" id="my-svg-flowchart-L5-33" data-look="classic" transform="translate(673.4765625, 69.25)"><rect class="basic label-container" style="fill:#14181e !important;stroke:#f85149 !important;stroke-width:2px !important" x="-43.7265625" y="-24.75" width="87.453125" height="49.5"/><g class="label" style="color:#e6edf3 !important;font-weight:500 !important" transform="translate(-13.7265625, -9.75)"><rect/><foreignObject width="27.453125" height="19.5"><div style="color: rgb(230, 237, 243) !important; font-weight: 500 !important; display: table-cell; white-space: nowrap; line-height: 1.5; max-width: 200px; text-align: center;" xmlns="http://www.w3.org/1999/xhtml"><span style="color:#e6edf3 !important;font-weight:500 !important" class="nodeLabel"><p>! risk</p></span></div></foreignObject></g></g><g class="node default riskadded" id="my-svg-flowchart-L6-34" data-look="classic" transform="translate(810.6171875, 69.25)"><rect class="basic label-container" style="fill:#12221d !important;stroke:#f85149 !important;stroke-width:2px !important" x="-65.4140625" y="-24.75" width="130.828125" height="49.5"/><g class="label" style="color:#e6edf3 !important;font-weight:500 !important" transform="translate(-35.4140625, -9.75)"><rect/><foreignObject width="70.828125" height="19.5"><div style="color: rgb(230, 237, 243) !important; font-weight: 500 !important; display: table-cell; white-space: nowrap; line-height: 1.5; max-width: 200px; text-align: center;" xmlns="http://www.w3.org/1999/xhtml"><span style="color:#e6edf3 !important;font-weight:500 !important" class="nodeLabel"><p>! risk, added</p></span></div></foreignObject></g></g></g></g><g class="node default" id="my-svg-flowchart-I1-0" data-look="classic" transform="translate(478.015625, 195.75)"><g class="basic label-container outer-path"><path d="M-14.4453125 -17.25 C-7.00910836510868 -17.25, 0.42709576978264074 -17.25, 14.4453125 -17.25 C14.4453125 -17.25, 14.4453125 -17.25, 14.445312499999998 -17.25 C14.760436486293633 -17.23989458711119, 15.075560472587268 -17.229789174222386, 15.550523794667296 -17.2145580249433 C15.78694338262132 -17.19175091162953, 16.023362970575345 -17.168943798315762, 16.651193539057726 -17.108377738450997 C16.875955870455773 -17.072039907768474, 17.100718201853823 -17.03570207708595, 17.74279884509867 -16.93189545809588 C17.971150536713495 -16.879775674618845, 18.199502228328324 -16.827655891141806, 18.820854072438998 -16.685836387423258 C19.11889895910111 -16.59737822953148, 19.41694384576322 -16.5089200716397, 19.880929260907457 -16.371211635934035 C20.093053640922246 -16.29314790323232, 20.30517802093704 -16.215084170530602, 20.918668334169205 -15.989314064218876 C21.139323936451586 -15.891636374604344, 21.359979538733967 -15.793958684989814, 21.929806999777878 -15.54171297131673 C22.16173893477417 -15.42071422938866, 22.393670869770464 -15.299715487460588, 22.910190272067922 -15.030247646128469 C23.125913253103107 -14.899475107295986, 23.341636234138296 -14.768702568463505, 23.85578954588196 -14.457019809384253 C24.154878447282243 -14.248388339117282, 24.453967348682525 -14.039756868850313, 24.762719150973474 -13.824384977222252 C25.03268300105331 -13.609095990823343, 25.302646851133144 -13.393807004424435, 25.627252319059345 -13.13494278186757 C25.884872817842535 -12.900978661137556, 26.142493316625725 -12.667014540407543, 26.44583649791014 -12.391526289185801 C26.615716834488317 -12.216110894233815, 26.78559717106649 -12.04069549928183, 27.215107949549193 -11.597190357007719 C27.398259637554894 -11.38204996264994, 27.581411325560595 -11.166909568292162, 27.931905572573513 -10.755199082063154 C28.17265776227672 -10.432613080836541, 28.41340995197993 -10.110027079609926, 28.593283891797483 -9.86901238710743 C28.72282393780659 -9.670004090064536, 28.8523639838157 -9.470995793021642, 29.19652516184222 -8.94227180335656 C29.38330397143672 -8.610627113516154, 29.570082781031225 -8.278982423675746, 29.739150534934254 -7.978785506654408 C29.894680867684606 -7.655823442882283, 30.05021120043496 -7.332861379110157, 30.21893024702276 -6.982512668861298 C30.38424541258465 -6.574181013772135, 30.549560578146544 -6.165849358682971, 30.633892780358362 -5.957547188767565 C30.77324440030959 -5.537842312139928, 30.912596020260818 -5.11813743551229, 30.982332964882396 -4.908100869385314 C31.067659610049574 -4.582713390560915, 31.152986255216756 -4.257325911736515, 31.26281898513646 -3.838486110746425 C31.313686496689236 -3.5772921897752816, 31.364554008242013 -3.3160982688041387, 31.474198263899265 -2.753098189325798 C31.517271981375295 -2.419026942449307, 31.56034569885132 -2.0849556955728166, 31.61560219837367 -1.6563971969075135 C31.642004442172016 -1.2451609382406152, 31.668406685970368 -0.8339246795737169, 31.686449729461867 -0.5528897131110516 C31.686449729461867 -0.32616125138140883, 31.686449729461867 -0.09943278965176611, 31.686449729461867 0.5528897131110474 C31.670485336277945 0.801548023176881, 31.65452094309402 1.0502063332427145, 31.61560219837367 1.6563971969075018 C31.56997908650546 2.0102410432548776, 31.52435597463725 2.3640848896022533, 31.474198263899265 2.753098189325786 C31.41440857318795 3.060105614572795, 31.354618882476633 3.3671130398198037, 31.26281898513646 3.8384861107464214 C31.169742325787805 4.193427752522173, 31.07666566643915 4.548369394297926, 30.982332964882396 4.908100869385303 C30.86166884534107 5.271521972227167, 30.741004725799744 5.63494307506903, 30.63389278035837 5.9575471887675535 C30.54501499803447 6.177077029442607, 30.456137215710573 6.39660687011766, 30.218930247022765 6.982512668861292 C30.0872409848133 7.255968239538077, 29.955551722603833 7.52942381021486, 29.739150534934254 7.978785506654404 C29.549983456706958 8.31467080929076, 29.360816378479665 8.650556111927118, 29.196525161842224 8.942271803356554 C28.96056588772294 9.304768612340663, 28.724606613603655 9.66726542132477, 28.59328389179749 9.869012387107421 C28.455473128273166 10.053666255411182, 28.317662364748845 10.23832012371494, 27.931905572573516 10.75519908206315 C27.66634590705645 11.067140575952536, 27.400786241539382 11.379082069841921, 27.2151079495492 11.597190357007708 C27.027191033242495 11.791230001360137, 26.839274116935787 11.985269645712565, 26.445836497910143 12.391526289185798 C26.176449684421254 12.636176265611903, 25.907062870932364 12.880826242038008, 25.627252319059362 13.13494278186756 C25.400719328099697 13.315596813861832, 25.17418633714003 13.496250845856105, 24.76271915097348 13.82438497722225 C24.425497994993556 14.059615857565284, 24.088276839013627 14.294846737908316, 23.855789545881972 14.457019809384246 C23.656498476264986 14.577831226950385, 23.457207406648 14.698642644516525, 22.91019027206793 15.030247646128467 C22.65367988170846 15.164068952476255, 22.397169491348993 15.297890258824044, 21.92980699977788 15.541712971316729 C21.587875537985962 15.69307588641558, 21.245944076194046 15.84443880151443, 20.91866833416921 15.989314064218874 C20.66648948751654 16.082118210902763, 20.414310640863867 16.17492235758665, 19.880929260907468 16.37121163593403 C19.605530926826184 16.452948415894003, 19.330132592744896 16.534685195853974, 18.82085407243902 16.685836387423254 C18.535020467482823 16.75107604251592, 18.249186862526628 16.81631569760858, 17.742798845098676 16.931895458095877 C17.427776419847717 16.982825840775057, 17.11275399459676 17.033756223454237, 16.651193539057736 17.108377738450994 C16.337743030286028 17.138615932052808, 16.024292521514322 17.168854125654626, 15.550523794667297 17.2145580249433 C15.257922889302181 17.22394116646525, 14.965321983937063 17.233324307987196, 14.445312500000004 17.25 C14.445312500000002 17.25, 14.4453125 17.25, 14.4453125 17.25 C3.657923285448332 17.25, -7.129465929103336 17.25, -14.445312499999996 17.25 C-14.776820673925037 17.23936917810374, -15.108328847850078 17.22873835620748, -15.55052379466729 17.2145580249433 C-15.78109155661674 17.192315430246342, -16.011659318566192 17.17007283554938, -16.651193539057733 17.108377738450994 C-16.918506813504067 17.065160601283914, -17.1858200879504 17.021943464116838, -17.742798845098672 16.931895458095877 C-18.135430095324192 16.842279937390256, -18.528061345549713 16.752664416684635, -18.820854072438998 16.685836387423258 C-19.228893764675554 16.5647323486115, -19.63693345691211 16.44362830979974, -19.880929260907447 16.37121163593404 C-20.234009985430784 16.24127466546701, -20.587090709954122 16.111337694999985, -20.918668334169205 15.989314064218876 C-21.301327930350855 15.819922012182872, -21.683987526532505 15.650529960146867, -21.929806999777874 15.541712971316732 C-22.27092179524756 15.363753601014652, -22.612036590717246 15.18579423071257, -22.910190272067922 15.03024764612847 C-23.210310916610776 14.848312747701916, -23.51043156115363 14.666377849275364, -23.855789545881954 14.457019809384258 C-24.213575143582418 14.207444064717313, -24.571360741282877 13.95786832005037, -24.762719150973474 13.824384977222254 C-24.97898195490654 13.65192114608054, -25.195244758839607 13.479457314938827, -25.627252319059345 13.134942781867572 C-25.907112020764863 12.880781605460562, -26.186971722470386 12.626620429053553, -26.445836497910133 12.391526289185808 C-26.753089695208494 12.074262137018614, -27.060342892506856 11.756997984851418, -27.215107949549193 11.597190357007715 C-27.386840666922108 11.395463335313046, -27.558573384295023 11.193736313618375, -27.931905572573513 10.755199082063156 C-28.104308012963717 10.52419551812571, -28.276710453353918 10.293191954188265, -28.593283891797483 9.869012387107432 C-28.73471007077436 9.65174379795244, -28.876136249751234 9.434475208797448, -29.196525161842214 8.942271803356567 C-29.31756817066142 8.727347684264329, -29.438611179480624 8.512423565172092, -29.73915053493425 7.97878550665441 C-29.854853292449715 7.738526255031125, -29.97055604996518 7.498267003407841, -30.21893024702276 6.9825126688612995 C-30.31398475731939 6.747726190674697, -30.409039267616016 6.512939712488093, -30.633892780358362 5.957547188767567 C-30.737596705079184 5.6452074904849905, -30.841300629800006 5.332867792202414, -30.982332964882396 4.90810086938531 C-31.072843571201634 4.562944699945138, -31.16335417752087 4.217788530504967, -31.262818985136455 3.8384861107464276 C-31.34274054989044 3.428105767163405, -31.422662114644428 3.0177254235803828, -31.474198263899265 2.7530981893258 C-31.502955871439124 2.5300598640785825, -31.531713478978983 2.3070215388313655, -31.61560219837367 1.6563971969075233 C-31.639149353314355 1.2896312517849833, -31.66269650825504 0.9228653066624432, -31.686449729461867 0.5528897131110537 C-31.686449729461867 0.27928383990209804, -31.686449729461867 0.005677966693142356, -31.686449729461867 -0.5528897131110454 C-31.66298334734229 -0.9183975563461724, -31.63951696522271 -1.2839053995812992, -31.61560219837367 -1.6563971969074995 C-31.576812020772795 -1.957246154392913, -31.538021843171922 -2.258095111878326, -31.474198263899265 -2.753098189325792 C-31.427086508694646 -2.995007095228524, -31.379974753490025 -3.2369160011312563, -31.26281898513646 -3.8384861107464197 C-31.156415287546423 -4.244249525311473, -31.050011589956387 -4.650012939876527, -30.9823329648824 -4.908100869385301 C-30.863491328197558 -5.266032944236645, -30.744649691512713 -5.623965019087991, -30.633892780358373 -5.957547188767545 C-30.487280404355 -6.319682592053331, -30.340668028351626 -6.681817995339117, -30.218930247022765 -6.982512668861291 C-30.033875056249794 -7.366783732048139, -29.848819865476823 -7.751054795234989, -29.739150534934254 -7.978785506654402 C-29.587446905941256 -8.24815066158967, -29.435743276948255 -8.517515816524936, -29.19652516184222 -8.942271803356562 C-29.002944375754172 -9.239663874507276, -28.809363589666123 -9.537055945657992, -28.59328389179749 -9.869012387107427 C-28.381127935195565 -10.15328204114875, -28.16897197859364 -10.437551695190074, -27.93190557257352 -10.75519908206315 C-27.6869897045386 -11.042891196764652, -27.442073836503678 -11.330583311466153, -27.2151079495492 -11.597190357007708 C-27.05199153093105 -11.765621451337974, -26.888875112312903 -11.93405254566824, -26.44583649791015 -12.39152628918579 C-26.16121420393252 -12.650012725883046, -25.87659190995489 -12.908499162580304, -25.627252319059366 -13.134942781867558 C-25.3832714223634 -13.329511054378257, -25.139290525667434 -13.524079326888955, -24.76271915097348 -13.824384977222248 C-24.455915996080986 -14.038397576780735, -24.149112841188494 -14.25241017633922, -23.855789545881976 -14.457019809384244 C-23.50410322826929 -14.67021412185926, -23.15241691065661 -14.883408434334276, -22.91019027206793 -15.030247646128466 C-22.640854230918457 -15.170760086278177, -22.371518189768985 -15.311272526427889, -21.92980699977788 -15.541712971316729 C-21.58797071952268 -15.693033752372735, -21.24613443926748 -15.84435453342874, -20.91866833416921 -15.98931406421887 C-20.70073341693831 -16.069516128328136, -20.482798499707407 -16.149718192437398, -19.88092926090747 -16.37121163593403 C-19.48931002673362 -16.48744216898552, -19.097690792559764 -16.603672702037013, -18.82085407243902 -16.68583638742325 C-18.396278013790933 -16.78274310219197, -17.971701955142844 -16.879649816960686, -17.74279884509868 -16.931895458095877 C-17.3657424506501 -16.992855011834312, -16.988686056201516 -17.053814565572747, -16.65119353905774 -17.108377738450994 C-16.404862523687555 -17.132140995247365, -16.15853150831737 -17.155904252043737, -15.5505237946673 -17.2145580249433 C-15.271323347197209 -17.223511439862964, -14.992122899727118 -17.232464854782627, -14.445312500000005 -17.25 C-14.445312500000004 -17.25, -14.445312500000002 -17.25, -14.4453125 -17.25" stroke="none" stroke-width="0" fill="#14181e" style="fill:#14181e !important;stroke:#383d43 !important;stroke-width:0.75px !important"/><path d="M-14.4453125 -17.25 C-8.131155248293263 -17.25, -1.816997996586526 -17.25, 14.4453125 -17.25 M-14.4453125 -17.25 C-4.16832824666618 -17.25, 6.1086560066676405 -17.25, 14.4453125 -17.25 M14.4453125 -17.25 C14.4453125 -17.25, 14.445312499999998 -17.25, 14.445312499999998 -17.25 M14.4453125 -17.25 C14.4453125 -17.25, 14.4453125 -17.25, 14.445312499999998 -17.25 M14.445312499999998 -17.25 C14.779444184174702 -17.239285047236386, 15.113575868349406 -17.228570094472772, 15.550523794667296 -17.2145580249433 M14.445312499999998 -17.25 C14.76980093030215 -17.239594287618623, 15.094289360604302 -17.22918857523725, 15.550523794667296 -17.2145580249433 M15.550523794667296 -17.2145580249433 C15.840463310464017 -17.186587908557676, 16.130402826260738 -17.158617792172052, 16.651193539057726 -17.108377738450997 M15.550523794667296 -17.2145580249433 C15.9323144425751 -17.17772714031007, 16.314105090482904 -17.140896255676836, 16.651193539057726 -17.108377738450997 M16.651193539057726 -17.108377738450997 C16.957799428987844 -17.058808075931285, 17.264405318917966 -17.00923841341157, 17.74279884509867 -16.93189545809588 M16.651193539057726 -17.108377738450997 C16.953428207208898 -17.059514781169174, 17.25566287536007 -17.01065182388735, 17.74279884509867 -16.93189545809588 M17.74279884509867 -16.93189545809588 C18.12483569923317 -16.844698039163138, 18.50687255336767 -16.757500620230395, 18.820854072438998 -16.685836387423258 M17.74279884509867 -16.93189545809588 C18.05767813798746 -16.86002631427343, 18.37255743087625 -16.788157170450976, 18.820854072438998 -16.685836387423258 M18.820854072438998 -16.685836387423258 C19.17043374649812 -16.582082975143667, 19.52001342055724 -16.478329562864072, 19.880929260907457 -16.371211635934035 M18.820854072438998 -16.685836387423258 C19.194701565623898 -16.574880413811517, 19.5685490588088 -16.463924440199776, 19.880929260907457 -16.371211635934035 M19.880929260907457 -16.371211635934035 C20.23605872861522 -16.240520709036765, 20.59118819632298 -16.109829782139496, 20.918668334169205 -15.989314064218876 M19.880929260907457 -16.371211635934035 C20.280870571842726 -16.224029536492907, 20.68081188277799 -16.076847437051775, 20.918668334169205 -15.989314064218876 M20.918668334169205 -15.989314064218876 C21.271332722691238 -15.833200000837563, 21.62399711121327 -15.67708593745625, 21.929806999777878 -15.54171297131673 M20.918668334169205 -15.989314064218876 C21.258569758296183 -15.838849786575366, 21.598471182423165 -15.688385508931855, 21.929806999777878 -15.54171297131673 M21.929806999777878 -15.54171297131673 C22.180809035882305 -15.410765369855529, 22.43181107198673 -15.279817768394325, 22.910190272067922 -15.030247646128469 M21.929806999777878 -15.54171297131673 C22.20815890096835 -15.396496962758563, 22.486510802158822 -15.251280954200395, 22.910190272067922 -15.030247646128469 M22.910190272067922 -15.030247646128469 C23.22079583895568 -14.841956726160191, 23.53140140584344 -14.653665806191913, 23.85578954588196 -14.457019809384253 M22.910190272067922 -15.030247646128469 C23.2783540053321 -14.807064627453475, 23.646517738596277 -14.583881608778482, 23.85578954588196 -14.457019809384253 M23.85578954588196 -14.457019809384253 C24.08442592873628 -14.297532966214574, 24.3130623115906 -14.138046123044894, 24.762719150973474 -13.824384977222252 M23.85578954588196 -14.457019809384253 C24.184248663580714 -14.227900947643642, 24.512707781279467 -13.99878208590303, 24.762719150973474 -13.824384977222252 M24.762719150973474 -13.824384977222252 C25.007406880665954 -13.629253024206449, 25.25209461035843 -13.434121071190647, 25.627252319059345 -13.13494278186757 M24.762719150973474 -13.824384977222252 C24.944226360802755 -13.679637807493105, 25.125733570632036 -13.534890637763958, 25.627252319059345 -13.13494278186757 M25.627252319059345 -13.13494278186757 C25.812774155180257 -12.966456758941357, 25.99829599130117 -12.797970736015143, 26.44583649791014 -12.391526289185801 M25.627252319059345 -13.13494278186757 C25.912065242220365 -12.876283220789736, 26.19687816538138 -12.6176236597119, 26.44583649791014 -12.391526289185801 M26.44583649791014 -12.391526289185801 C26.732757462482322 -12.095256836615741, 27.0196784270545 -11.798987384045681, 27.215107949549193 -11.597190357007719 M26.44583649791014 -12.391526289185801 C26.62216712755235 -12.209450437066291, 26.79849775719456 -12.027374584946783, 27.215107949549193 -11.597190357007719 M27.215107949549193 -11.597190357007719 C27.402702411357694 -11.376831227740182, 27.590296873166196 -11.156472098472644, 27.931905572573513 -10.755199082063154 M27.215107949549193 -11.597190357007719 C27.36634276228372 -11.419541340465118, 27.51757757501824 -11.241892323922517, 27.931905572573513 -10.755199082063154 M27.931905572573513 -10.755199082063154 C28.10162671797965 -10.527788209133359, 28.271347863385785 -10.300377336203566, 28.593283891797483 -9.86901238710743 M27.931905572573513 -10.755199082063154 C28.178062163627455 -10.425371675377647, 28.424218754681398 -10.095544268692143, 28.593283891797483 -9.86901238710743 M28.593283891797483 -9.86901238710743 C28.827094043061877 -9.509817207948728, 29.060904194326266 -9.150622028790028, 29.19652516184222 -8.94227180335656 M28.593283891797483 -9.86901238710743 C28.714005735379317 -9.683551217011734, 28.834727578961154 -9.498090046916039, 29.19652516184222 -8.94227180335656 M29.19652516184222 -8.94227180335656 C29.389015802727137 -8.600485178674385, 29.581506443612057 -8.258698553992208, 29.739150534934254 -7.978785506654408 M29.19652516184222 -8.94227180335656 C29.315866709648365 -8.730368800584623, 29.43520825745451 -8.518465797812686, 29.739150534934254 -7.978785506654408 M29.739150534934254 -7.978785506654408 C29.923450588040602 -7.596082502989659, 30.107750641146946 -7.213379499324909, 30.21893024702276 -6.982512668861298 M29.739150534934254 -7.978785506654408 C29.909126771210587 -7.625826215117765, 30.079103007486918 -7.272866923581123, 30.21893024702276 -6.982512668861298 M30.21893024702276 -6.982512668861298 C30.320476075502448 -6.731692509261438, 30.422021903982134 -6.4808723496615785, 30.633892780358362 -5.957547188767565 M30.21893024702276 -6.982512668861298 C30.360506940742937 -6.6328154981733025, 30.502083634463112 -6.283118327485308, 30.633892780358362 -5.957547188767565 M30.633892780358362 -5.957547188767565 C30.74922511537033 -5.610184571423633, 30.8645574503823 -5.2628219540797, 30.982332964882396 -4.908100869385314 M30.633892780358362 -5.957547188767565 C30.717282975528157 -5.706389207339415, 30.80067317069795 -5.455231225911265, 30.982332964882396 -4.908100869385314 M30.982332964882396 -4.908100869385314 C31.05225914909228 -4.6414420227930835, 31.122185333302163 -4.374783176200854, 31.26281898513646 -3.838486110746425 M30.982332964882396 -4.908100869385314 C31.093360153732814 -4.484706078810642, 31.204387342583228 -4.061311288235969, 31.26281898513646 -3.838486110746425 M31.26281898513646 -3.838486110746425 C31.344466932255852 -3.4192411585880733, 31.426114879375245 -2.9999962064297216, 31.474198263899265 -2.753098189325798 M31.26281898513646 -3.838486110746425 C31.341030556058715 -3.4368862240820035, 31.419242126980972 -3.035286337417582, 31.474198263899265 -2.753098189325798 M31.474198263899265 -2.753098189325798 C31.509736184082485 -2.4774730981408424, 31.545274104265705 -2.2018480069558866, 31.61560219837367 -1.6563971969075135 M31.474198263899265 -2.753098189325798 C31.520217203361764 -2.396184382322117, 31.56623614282426 -2.0392705753184357, 31.61560219837367 -1.6563971969075135 M31.61560219837367 -1.6563971969075135 C31.64337878045903 -1.223754510074498, 31.671155362544393 -0.7911118232414824, 31.686449729461867 -0.5528897131110516 M31.61560219837367 -1.6563971969075135 C31.641274732671164 -1.2565267527273325, 31.66694726696866 -0.8566563085471514, 31.686449729461867 -0.5528897131110516 M31.686449729461867 -0.5528897131110516 C31.686449729461867 -0.23788524399494698, 31.686449729461867 0.07711922512115765, 31.686449729461867 0.5528897131110474 M31.686449729461867 -0.5528897131110516 C31.686449729461867 -0.2573374582708489, 31.686449729461867 0.03821479656935378, 31.686449729461867 0.5528897131110474 M31.686449729461867 0.5528897131110474 C31.662933253676048 0.9191778056327652, 31.63941677789023 1.285465898154483, 31.61560219837367 1.6563971969075018 M31.686449729461867 0.5528897131110474 C31.67222256993352 0.7744892067214804, 31.657995410405178 0.9960887003319132, 31.61560219837367 1.6563971969075018 M31.61560219837367 1.6563971969075018 C31.560221406098876 2.0859196856163904, 31.504840613824086 2.5154421743252793, 31.474198263899265 2.753098189325786 M31.61560219837367 1.6563971969075018 C31.57205820713567 1.9941157942157772, 31.52851421589767 2.3318343915240525, 31.474198263899265 2.753098189325786 M31.474198263899265 2.753098189325786 C31.415298402386338 3.055536529704529, 31.35639854087341 3.357974870083272, 31.26281898513646 3.8384861107464214 M31.474198263899265 2.753098189325786 C31.428432296017778 2.988096761756484, 31.382666328136292 3.2230953341871817, 31.26281898513646 3.8384861107464214 M31.26281898513646 3.8384861107464214 C31.19608325851535 4.092978359799576, 31.129347531894247 4.34747060885273, 30.982332964882396 4.908100869385303 M31.26281898513646 3.8384861107464214 C31.16712536359244 4.203407363571687, 31.07143174204842 4.568328616396952, 30.982332964882396 4.908100869385303 M30.982332964882396 4.908100869385303 C30.84689433613104 5.316020439969417, 30.71145570737968 5.723940010553532, 30.63389278035837 5.9575471887675535 M30.982332964882396 4.908100869385303 C30.86919046338123 5.248868057097295, 30.756047961880064 5.589635244809287, 30.63389278035837 5.9575471887675535 M30.63389278035837 5.9575471887675535 C30.49620974232452 6.297626954631616, 30.358526704290668 6.637706720495677, 30.218930247022765 6.982512668861292 M30.63389278035837 5.9575471887675535 C30.49160553957088 6.308999424449303, 30.349318298783395 6.660451660131053, 30.218930247022765 6.982512668861292 M30.218930247022765 6.982512668861292 C30.071143900881395 7.289394178745091, 29.923357554740026 7.596275688628891, 29.739150534934254 7.978785506654404 M30.218930247022765 6.982512668861292 C30.050870101370357 7.331493157219579, 29.882809955717953 7.680473645577864, 29.739150534934254 7.978785506654404 M29.739150534934254 7.978785506654404 C29.596086907556295 8.232809463827133, 29.453023280178336 8.486833420999861, 29.196525161842224 8.942271803356554 M29.739150534934254 7.978785506654404 C29.567052370724603 8.284363224037468, 29.39495420651495 8.589940941420533, 29.196525161842224 8.942271803356554 M29.196525161842224 8.942271803356554 C28.961784257001284 9.302896869951162, 28.727043352160347 9.663521936545772, 28.59328389179749 9.869012387107421 M29.196525161842224 8.942271803356554 C29.0596143758838 9.152603536282403, 28.92270358992538 9.362935269208252, 28.59328389179749 9.869012387107421 M28.59328389179749 9.869012387107421 C28.460665993241303 10.04670828943361, 28.328048094685116 10.2244041917598, 27.931905572573516 10.75519908206315 M28.59328389179749 9.869012387107421 C28.333390874569023 10.21724535345262, 28.07349785734056 10.565478319797819, 27.931905572573516 10.75519908206315 M27.931905572573516 10.75519908206315 C27.710481074157833 11.015296897313096, 27.489056575742154 11.275394712563042, 27.2151079495492 11.597190357007708 M27.931905572573516 10.75519908206315 C27.699777404309994 11.027870036972436, 27.467649236046473 11.300540991881723, 27.2151079495492 11.597190357007708 M27.2151079495492 11.597190357007708 C26.997156632185945 11.822242986321209, 26.779205314822693 12.04729561563471, 26.445836497910143 12.391526289185798 M27.2151079495492 11.597190357007708 C26.970755843319232 11.849503968371168, 26.726403737089264 12.101817579734629, 26.445836497910143 12.391526289185798 M26.445836497910143 12.391526289185798 C26.202717606821118 12.61232043349949, 25.959598715732092 12.833114577813179, 25.627252319059362 13.13494278186756 M26.445836497910143 12.391526289185798 C26.25075367704225 12.568695345489425, 26.05567085617436 12.745864401793053, 25.627252319059362 13.13494278186756 M25.627252319059362 13.13494278186756 C25.289548633464655 13.40425248445685, 24.951844947869947 13.673562187046139, 24.76271915097348 13.82438497722225 M25.627252319059362 13.13494278186756 C25.31188153664658 13.386442588472775, 24.9965107542338 13.637942395077992, 24.76271915097348 13.82438497722225 M24.76271915097348 13.82438497722225 C24.496963783853335 14.009764416960838, 24.23120841673319 14.195143856699426, 23.855789545881972 14.457019809384246 M24.76271915097348 13.82438497722225 C24.525502028140966 13.98985737314647, 24.28828490530845 14.155329769070693, 23.855789545881972 14.457019809384246 M23.855789545881972 14.457019809384246 C23.571615971055383 14.629287500433417, 23.28744239622879 14.801555191482588, 22.91019027206793 15.030247646128467 M23.855789545881972 14.457019809384246 C23.63568965879757 14.590445654385316, 23.415589771713172 14.723871499386389, 22.91019027206793 15.030247646128467 M22.91019027206793 15.030247646128467 C22.57579463076126 15.204701638007528, 22.241398989454584 15.379155629886586, 21.92980699977788 15.541712971316729 M22.91019027206793 15.030247646128467 C22.678830727409196 15.150947772384068, 22.44747118275046 15.271647898639669, 21.92980699977788 15.541712971316729 M21.92980699977788 15.541712971316729 C21.628806589102087 15.674956924262965, 21.32780617842629 15.808200877209199, 20.91866833416921 15.989314064218874 M21.92980699977788 15.541712971316729 C21.569755242879943 15.70109720353956, 21.209703485982004 15.860481435762388, 20.91866833416921 15.989314064218874 M20.91866833416921 15.989314064218874 C20.515907221687943 16.137533876694892, 20.11314610920667 16.28575368917091, 19.880929260907468 16.37121163593403 M20.91866833416921 15.989314064218874 C20.552286761928602 16.124145869597545, 20.185905189687993 16.258977674976215, 19.880929260907468 16.37121163593403 M19.880929260907468 16.37121163593403 C19.534183902490845 16.47412383820856, 19.18743854407422 16.577036040483083, 18.82085407243902 16.685836387423254 M19.880929260907468 16.37121163593403 C19.629566676131564 16.44581473166639, 19.378204091355656 16.520417827398745, 18.82085407243902 16.685836387423254 M18.82085407243902 16.685836387423254 C18.552528968357613 16.747079841444894, 18.28420386427621 16.80832329546653, 17.742798845098676 16.931895458095877 M18.82085407243902 16.685836387423254 C18.476713142504803 16.764384308951296, 18.132572212570583 16.84293223047934, 17.742798845098676 16.931895458095877 M17.742798845098676 16.931895458095877 C17.376477928693667 16.991119382999102, 17.010157012288655 17.05034330790233, 16.651193539057736 17.108377738450994 M17.742798845098676 16.931895458095877 C17.37813401745338 16.99085163941159, 17.013469189808085 17.04980782072731, 16.651193539057736 17.108377738450994 M16.651193539057736 17.108377738450994 C16.41045879004091 17.131601130162753, 16.169724041024082 17.15482452187451, 15.550523794667297 17.2145580249433 M16.651193539057736 17.108377738450994 C16.25792481528892 17.146315899258134, 15.864656091520102 17.18425406006527, 15.550523794667297 17.2145580249433 M15.550523794667297 17.2145580249433 C15.126134992355663 17.228167347810743, 14.701746190044028 17.241776670678185, 14.445312500000004 17.25 M15.550523794667297 17.2145580249433 C15.16982559196077 17.22676627532, 14.789127389254242 17.2389745256967, 14.445312500000004 17.25 M14.445312500000004 17.25 C14.445312500000002 17.25, 14.445312500000002 17.25, 14.4453125 17.25 M14.445312500000004 17.25 C14.445312500000002 17.25, 14.445312500000002 17.25, 14.4453125 17.25 M14.4453125 17.25 C5.739441365406703 17.25, -2.9664297691865933 17.25, -14.445312499999996 17.25 M14.4453125 17.25 C3.5241856426267795 17.25, -7.396941214746441 17.25, -14.445312499999996 17.25 M-14.445312499999996 17.25 C-14.764774860467378 17.239755463895573, -15.08423722093476 17.229510927791146, -15.55052379466729 17.2145580249433 M-14.445312499999996 17.25 C-14.850361960695489 17.237010852176443, -15.255411421390981 17.224021704352886, -15.55052379466729 17.2145580249433 M-15.55052379466729 17.2145580249433 C-15.919460563508174 17.1789671385646, -16.288397332349057 17.143376252185906, -16.651193539057733 17.108377738450994 M-15.55052379466729 17.2145580249433 C-15.809710277149726 17.18955461669557, -16.068896759632164 17.164551208447843, -16.651193539057733 17.108377738450994 M-16.651193539057733 17.108377738450994 C-17.051803648087475 17.04361020280086, -17.452413757117217 16.978842667150726, -17.742798845098672 16.931895458095877 M-16.651193539057733 17.108377738450994 C-16.89356936047641 17.069192295296588, -17.135945181895085 17.030006852142186, -17.742798845098672 16.931895458095877 M-17.742798845098672 16.931895458095877 C-17.998178713755756 16.873606669584284, -18.253558582412836 16.81531788107269, -18.820854072438998 16.685836387423258 M-17.742798845098672 16.931895458095877 C-18.02940125243366 16.86648032887716, -18.316003659768647 16.80106519965844, -18.820854072438998 16.685836387423258 M-18.820854072438998 16.685836387423258 C-19.16958182778123 16.582335820147026, -19.51830958312346 16.478835252870795, -19.880929260907447 16.37121163593404 M-18.820854072438998 16.685836387423258 C-19.171543095922875 16.581753726057492, -19.522232119406755 16.477671064691727, -19.880929260907447 16.37121163593404 M-19.880929260907447 16.37121163593404 C-20.25034629358012 16.23526275305688, -20.61976332625279 16.09931387017972, -20.918668334169205 15.989314064218876 M-19.880929260907447 16.37121163593404 C-20.276004541282564 16.22582028072014, -20.671079821657678 16.080428925506236, -20.918668334169205 15.989314064218876 M-20.918668334169205 15.989314064218876 C-21.27877547981098 15.829905313042197, -21.63888262545276 15.67049656186552, -21.929806999777874 15.541712971316732 M-20.918668334169205 15.989314064218876 C-21.263655852090384 15.836598323726285, -21.608643370011563 15.683882583233695, -21.929806999777874 15.541712971316732 M-21.929806999777874 15.541712971316732 C-22.15983790164755 15.421705997153147, -22.389868803517228 15.301699022989562, -22.910190272067922 15.03024764612847 M-21.929806999777874 15.541712971316732 C-22.29923653410907 15.348981819887058, -22.668666068440267 15.156250668457382, -22.910190272067922 15.03024764612847 M-22.910190272067922 15.03024764612847 C-23.274366514861367 14.80948186760993, -23.63854275765481 14.58871608909139, -23.855789545881954 14.457019809384258 M-22.910190272067922 15.03024764612847 C-23.204357586895004 14.851921691161266, -23.49852490172209 14.673595736194061, -23.855789545881954 14.457019809384258 M-23.855789545881954 14.457019809384258 C-24.09286817603482 14.29164401995811, -24.329946806187685 14.12626823053196, -24.762719150973474 13.824384977222254 M-23.855789545881954 14.457019809384258 C-24.202761776632762 14.21498700139828, -24.549734007383574 13.972954193412303, -24.762719150973474 13.824384977222254 M-24.762719150973474 13.824384977222254 C-24.976864596663177 13.653609682934352, -25.191010042352882 13.48283438864645, -25.627252319059345 13.134942781867572 M-24.762719150973474 13.824384977222254 C-25.074645474014066 13.575632035305444, -25.38657179705466 13.326879093388635, -25.627252319059345 13.134942781867572 M-25.627252319059345 13.134942781867572 C-25.88182337268355 12.90374808654705, -26.136394426307753 12.672553391226531, -26.445836497910133 12.391526289185808 M-25.627252319059345 13.134942781867572 C-25.84031968546058 12.941440637155562, -26.053387051861815 12.747938492443554, -26.445836497910133 12.391526289185808 M-26.445836497910133 12.391526289185808 C-26.666026663195083 12.164161865580322, -26.886216828480038 11.936797441974834, -27.215107949549193 11.597190357007715 M-26.445836497910133 12.391526289185808 C-26.61519814968575 12.216646478877278, -26.784559801461366 12.041766668568748, -27.215107949549193 11.597190357007715 M-27.215107949549193 11.597190357007715 C-27.36196990260812 11.424677950262835, -27.50883185566705 11.252165543517954, -27.931905572573513 10.755199082063156 M-27.215107949549193 11.597190357007715 C-27.42266691717311 11.353379783196829, -27.630225884797028 11.109569209385942, -27.931905572573513 10.755199082063156 M-27.931905572573513 10.755199082063156 C-28.115852292192976 10.508727235663972, -28.29979901181244 10.26225538926479, -28.593283891797483 9.869012387107432 M-27.931905572573513 10.755199082063156 C-28.12203845108888 10.50043834631413, -28.312171329604247 10.245677610565107, -28.593283891797483 9.869012387107432 M-28.593283891797483 9.869012387107432 C-28.73757154519373 9.647347804830815, -28.88185919858998 9.425683222554198, -29.196525161842214 8.942271803356567 M-28.593283891797483 9.869012387107432 C-28.794006570853284 9.560648450491462, -28.994729249909085 9.252284513875493, -29.196525161842214 8.942271803356567 M-29.196525161842214 8.942271803356567 C-29.331739064759734 8.70218582683414, -29.466952967677255 8.462099850311715, -29.73915053493425 7.97878550665441 M-29.196525161842214 8.942271803356567 C-29.40644057467774 8.569545731626588, -29.616355987513273 8.196819659896612, -29.73915053493425 7.97878550665441 M-29.73915053493425 7.97878550665441 C-29.920943766786337 7.601287970961517, -30.102736998638424 7.223790435268623, -30.21893024702276 6.9825126688612995 M-29.73915053493425 7.97878550665441 C-29.90003495280575 7.644705570569152, -30.060919370677254 7.310625634483893, -30.21893024702276 6.9825126688612995 M-30.21893024702276 6.9825126688612995 C-30.359800491457197 6.634560441567354, -30.500670735891628 6.286608214273408, -30.633892780358362 5.957547188767567 M-30.21893024702276 6.9825126688612995 C-30.310623794880755 6.756027832877913, -30.402317342738744 6.529542996894526, -30.633892780358362 5.957547188767567 M-30.633892780358362 5.957547188767567 C-30.769659888071846 5.548638291885548, -30.90542699578533 5.139729395003529, -30.982332964882396 4.90810086938531 M-30.633892780358362 5.957547188767567 C-30.76186817943727 5.572105676852711, -30.889843578516178 5.186664164937855, -30.982332964882396 4.90810086938531 M-30.982332964882396 4.90810086938531 C-31.087191626227458 4.508229347645276, -31.192050287572524 4.108357825905242, -31.262818985136455 3.8384861107464276 M-30.982332964882396 4.90810086938531 C-31.077846738429347 4.543865454919464, -31.173360511976302 4.179630040453619, -31.262818985136455 3.8384861107464276 M-31.262818985136455 3.8384861107464276 C-31.30566010539786 3.618506012678095, -31.348501225659263 3.398525914609762, -31.474198263899265 2.7530981893258 M-31.262818985136455 3.8384861107464276 C-31.31392052957772 3.5760904803557767, -31.365022074018984 3.3136948499651253, -31.474198263899265 2.7530981893258 M-31.474198263899265 2.7530981893258 C-31.529105298402655 2.327250072337839, -31.58401233290605 1.9014019553498787, -31.61560219837367 1.6563971969075233 M-31.474198263899265 2.7530981893258 C-31.515596415954086 2.4320222969783942, -31.556994568008903 2.1109464046309885, -31.61560219837367 1.6563971969075233 M-31.61560219837367 1.6563971969075233 C-31.64028845369218 1.2718888439350613, -31.664974709010693 0.8873804909625994, -31.686449729461867 0.5528897131110537 M-31.61560219837367 1.6563971969075233 C-31.635641209668382 1.3442734207936033, -31.65568022096309 1.0321496446796832, -31.686449729461867 0.5528897131110537 M-31.686449729461867 0.5528897131110537 C-31.686449729461867 0.16995679087342142, -31.686449729461867 -0.2129761313642109, -31.686449729461867 -0.5528897131110454 M-31.686449729461867 0.5528897131110537 C-31.686449729461867 0.16184533186205502, -31.686449729461867 -0.2291990493869437, -31.686449729461867 -0.5528897131110454 M-31.686449729461867 -0.5528897131110454 C-31.6669535907326 -0.8565578108192966, -31.647457452003334 -1.160225908527548, -31.61560219837367 -1.6563971969074995 M-31.686449729461867 -0.5528897131110454 C-31.661438500376796 -0.9424597948117321, -31.63642727129173 -1.3320298765124188, -31.61560219837367 -1.6563971969074995 M-31.61560219837367 -1.6563971969074995 C-31.56442202165402 -2.0533405408760443, -31.513241844934377 -2.4502838848445894, -31.474198263899265 -2.753098189325792 M-31.61560219837367 -1.6563971969074995 C-31.572112877676144 -1.9936917802997862, -31.528623556978616 -2.330986363692073, -31.474198263899265 -2.753098189325792 M-31.474198263899265 -2.753098189325792 C-31.405901587517683 -3.103787188037554, -31.3376049111361 -3.454476186749316, -31.26281898513646 -3.8384861107464197 M-31.474198263899265 -2.753098189325792 C-31.406820582501926 -3.0990683430231267, -31.339442901104587 -3.4450384967204615, -31.26281898513646 -3.8384861107464197 M-31.26281898513646 -3.8384861107464197 C-31.192777136015188 -4.1055860377752555, -31.12273528689392 -4.372685964804092, -30.9823329648824 -4.908100869385301 M-31.26281898513646 -3.8384861107464197 C-31.15253298287224 -4.259054435635618, -31.042246980608024 -4.679622760524817, -30.9823329648824 -4.908100869385301 M-30.9823329648824 -4.908100869385301 C-30.909880604535044 -5.126315835035579, -30.83742824418769 -5.344530800685859, -30.633892780358373 -5.957547188767545 M-30.9823329648824 -4.908100869385301 C-30.88221344052416 -5.209644924872416, -30.782093916165923 -5.511188980359531, -30.633892780358373 -5.957547188767545 M-30.633892780358373 -5.957547188767545 C-30.54885557691473 -6.167590725355828, -30.463818373471085 -6.377634261944112, -30.218930247022765 -6.982512668861291 M-30.633892780358373 -5.957547188767545 C-30.53403007821944 -6.20420999376471, -30.434167376080506 -6.450872798761875, -30.218930247022765 -6.982512668861291 M-30.218930247022765 -6.982512668861291 C-30.06344963673914 -7.305371482867361, -29.90796902645552 -7.628230296873432, -29.739150534934254 -7.978785506654402 M-30.218930247022765 -6.982512668861291 C-30.044645646096516 -7.344418371777718, -29.870361045170267 -7.7063240746941455, -29.739150534934254 -7.978785506654402 M-29.739150534934254 -7.978785506654402 C-29.559060370062294 -8.298553830491215, -29.378970205190335 -8.61832215432803, -29.19652516184222 -8.942271803356562 M-29.739150534934254 -7.978785506654402 C-29.62213646100421 -8.18655584387704, -29.505122387074167 -8.394326181099675, -29.19652516184222 -8.942271803356562 M-29.19652516184222 -8.942271803356562 C-29.008870636581992 -9.23055954645189, -28.821216111321768 -9.518847289547216, -28.59328389179749 -9.869012387107427 M-29.19652516184222 -8.942271803356562 C-29.013467401834358 -9.223497680619957, -28.830409641826492 -9.504723557883352, -28.59328389179749 -9.869012387107427 M-28.59328389179749 -9.869012387107427 C-28.37740934808117 -10.158264609111786, -28.161534804364848 -10.447516831116145, -27.93190557257352 -10.75519908206315 M-28.59328389179749 -9.869012387107427 C-28.36633526474808 -10.173102871908378, -28.13938663769867 -10.477193356709332, -27.93190557257352 -10.75519908206315 M-27.93190557257352 -10.75519908206315 C-27.723838324523552 -10.999606710984452, -27.515771076473584 -11.244014339905751, -27.2151079495492 -11.597190357007708 M-27.93190557257352 -10.75519908206315 C-27.67712784779774 -11.05447549484801, -27.42235012302196 -11.353751907632871, -27.2151079495492 -11.597190357007708 M-27.2151079495492 -11.597190357007708 C-27.059398508450485 -11.757973138924996, -26.903689067351767 -11.918755920842285, -26.44583649791015 -12.39152628918579 M-27.2151079495492 -11.597190357007708 C-27.040094457693584 -11.777906156223537, -26.865080965837972 -11.958621955439364, -26.44583649791015 -12.39152628918579 M-26.44583649791015 -12.39152628918579 C-26.15834355866141 -12.652619769965158, -25.870850619412668 -12.913713250744525, -25.627252319059366 -13.134942781867558 M-26.44583649791015 -12.39152628918579 C-26.245388181433256 -12.573568146638282, -26.04493986495636 -12.755610004090773, -25.627252319059366 -13.134942781867558 M-25.627252319059366 -13.134942781867558 C-25.397772398882605 -13.317946911491383, -25.168292478705844 -13.500951041115208, -24.76271915097348 -13.824384977222248 M-25.627252319059366 -13.134942781867558 C-25.349645669171057 -13.356326697730276, -25.07203901928275 -13.577710613592997, -24.76271915097348 -13.824384977222248 M-24.76271915097348 -13.824384977222248 C-24.46587237523911 -14.031452437684736, -24.16902559950473 -14.238519898147226, -23.855789545881976 -14.457019809384244 M-24.76271915097348 -13.824384977222248 C-24.519700798025294 -13.99390406014396, -24.276682445077107 -14.16342314306567, -23.855789545881976 -14.457019809384244 M-23.855789545881976 -14.457019809384244 C-23.596772781093367 -14.614037294350565, -23.337756016304755 -14.771054779316888, -22.91019027206793 -15.030247646128466 M-23.855789545881976 -14.457019809384244 C-23.64450107938485 -14.585104119443654, -23.433212612887722 -14.713188429503067, -22.91019027206793 -15.030247646128466 M-22.91019027206793 -15.030247646128466 C-22.71409271819934 -15.132551614375231, -22.51799516433075 -15.234855582621996, -21.92980699977788 -15.541712971316729 M-22.91019027206793 -15.030247646128466 C-22.56710498414445 -15.20923502108153, -22.224019696220967 -15.388222396034596, -21.92980699977788 -15.541712971316729 M-21.92980699977788 -15.541712971316729 C-21.54559092491958 -15.711794030291585, -21.16137485006128 -15.881875089266442, -20.91866833416921 -15.98931406421887 M-21.92980699977788 -15.541712971316729 C-21.686711425013588 -15.64932417109087, -21.44361585024929 -15.75693537086501, -20.91866833416921 -15.98931406421887 M-20.91866833416921 -15.98931406421887 C-20.652987756748285 -16.087086972634108, -20.387307179327358 -16.184859881049345, -19.88092926090747 -16.37121163593403 M-20.91866833416921 -15.98931406421887 C-20.647420453469046 -16.089135791704457, -20.376172572768876 -16.18895751919004, -19.88092926090747 -16.37121163593403 M-19.88092926090747 -16.37121163593403 C-19.524717453970368 -16.476933430439033, -19.168505647033264 -16.582655224944034, -18.82085407243902 -16.68583638742325 M-19.88092926090747 -16.37121163593403 C-19.5944135234349 -16.456248002864093, -19.30789778596233 -16.541284369794155, -18.82085407243902 -16.68583638742325 M-18.82085407243902 -16.68583638742325 C-18.538293112702885 -16.750329082600445, -18.255732152966747 -16.814821777777635, -17.74279884509868 -16.931895458095877 M-18.82085407243902 -16.68583638742325 C-18.49198342076265 -16.76089896758682, -18.16311276908628 -16.835961547750387, -17.74279884509868 -16.931895458095877 M-17.74279884509868 -16.931895458095877 C-17.42056209061161 -16.983992197577994, -17.09832533612454 -17.036088937060107, -16.65119353905774 -17.108377738450994 M-17.74279884509868 -16.931895458095877 C-17.479333644673716 -16.97449046849744, -17.21586844424875 -17.017085478899006, -16.65119353905774 -17.108377738450994 M-16.65119353905774 -17.108377738450994 C-16.38243818490507 -17.1343042442405, -16.1136828307524 -17.160230750030003, -15.5505237946673 -17.2145580249433 M-16.65119353905774 -17.108377738450994 C-16.357158701024897 -17.136742925647393, -16.06312386299205 -17.16510811284379, -15.5505237946673 -17.2145580249433 M-15.5505237946673 -17.2145580249433 C-15.312220998222735 -17.222199931797025, -15.073918201778168 -17.229841838650746, -14.445312500000005 -17.25 M-15.5505237946673 -17.2145580249433 C-15.301227367543898 -17.22255247613509, -15.051930940420496 -17.23054692732688, -14.445312500000005 -17.25 M-14.445312500000005 -17.25 C-14.445312500000004 -17.25, -14.445312500000002 -17.25, -14.4453125 -17.25 M-14.445312500000005 -17.25 C-14.445312500000004 -17.25, -14.445312500000002 -17.25, -14.4453125 -17.25" stroke="#383d43" stroke-width="0.75" fill="none" stroke-dasharray="0 0" style="fill:#14181e !important;stroke:#383d43 !important;stroke-width:0.75px !important"/></g><g class="label" style="color:#e6edf3 !important;font-weight:500 !important" transform="translate(-19.8828125, -9.75)"><rect/><foreignObject width="39.765625" height="19.5"><div style="color: rgb(230, 237, 243) !important; font-weight: 500 !important; display: table-cell; white-space: nowrap; line-height: 1.5; max-width: 200px; text-align: center;" xmlns="http://www.w3.org/1999/xhtml"><span style="color:#e6edf3 !important;font-weight:500 !important" class="nodeLabel"><p>Input 1</p></span></div></foreignObject></g></g><g class="node default added" id="my-svg-flowchart-F1-1" data-look="classic" transform="translate(1085.09375, 195.75)"><rect class="basic label-container" style="fill:#12221d !important;stroke:#3fb950 !important;stroke-width:1px !important" x="-65.0625" y="-24.75" width="130.125" height="49.5"/><g class="label" style="color:#e6edf3 !important;font-weight:500 !important" transform="translate(-35.0625, -9.75)"><rect/><foreignObject width="70.125" height="19.5"><div style="color: rgb(230, 237, 243) !important; font-weight: 500 !important; display: table-cell; white-space: nowrap; line-height: 1.5; max-width: 200px; text-align: center;" xmlns="http://www.w3.org/1999/xhtml"><span style="color:#e6edf3 !important;font-weight:500 !important" class="nodeLabel"><p>handleInvite</p></span></div></foreignObject></g></g><g class="node default modified" id="my-svg-flowchart-F2-2" data-look="classic" transform="translate(1275.1328125, 313.125)"><rect class="basic label-container" style="fill:#211f18 !important;stroke:#d29922 !important;stroke-width:1px !important" x="-64.6875" y="-24.75" width="129.375" height="49.5"/><g class="label" style="color:#e6edf3 !important;font-weight:500 !important" transform="translate(-34.6875, -9.75)"><rect/><foreignObject width="69.375" height="19.5"><div style="color: rgb(230, 237, 243) !important; font-weight: 500 !important; display: table-cell; white-space: nowrap; line-height: 1.5; max-width: 200px; text-align: center;" xmlns="http://www.w3.org/1999/xhtml"><span style="color:#e6edf3 !important;font-weight:500 !important" class="nodeLabel"><p>checkQuota</p></span></div></foreignObject></g></g><g class="node default removed" id="my-svg-flowchart-F3-3" data-look="classic" transform="translate(1275.1328125, 158.125)"><rect class="basic label-container" style="fill:#24171c !important;stroke:#f85149 !important;stroke-width:1px !important;stroke-dasharray:4 4 !important" x="-76.9765625" y="-24.75" width="153.953125" height="49.5"/><g class="label" style="color:#e6edf3 !important;font-weight:500 !important" transform="translate(-46.9765625, -9.75)"><rect/><foreignObject width="93.953125" height="19.5"><div style="color: rgb(230, 237, 243) !important; font-weight: 500 !important; display: table-cell; white-space: nowrap; line-height: 1.5; max-width: 200px; text-align: center;" xmlns="http://www.w3.org/1999/xhtml"><span style="color:#e6edf3 !important;font-weight:500 !important" class="nodeLabel"><p>sendLegacyMail</p></span></div></foreignObject></g></g><g class="node default context" id="my-svg-flowchart-F4-4" data-look="classic" transform="translate(1275.1328125, 235.625)"><rect class="basic label-container" style="fill:#14181e !important;stroke:#383d43 !important;stroke-width:0.75px !important" x="-73.234375" y="-24.75" width="146.46875" height="49.5"/><g class="label" style="color:#9198a1 !important;font-weight:500 !important" transform="translate(-43.234375, -9.75)"><rect/><foreignObject width="86.46875" height="19.5"><div style="color: rgb(145, 152, 161) !important; font-weight: 500 !important; display: table-cell; white-space: nowrap; line-height: 1.5; max-width: 200px; text-align: center;" xmlns="http://www.w3.org/1999/xhtml"><span style="color:#9198a1 !important;font-weight:500 !important" class="nodeLabel"><p>UserQuery.Get</p></span></div></foreignObject></g></g><g class="node default risk" id="my-svg-flowchart-F5-5" data-look="classic" transform="translate(1491.5390625, 313.125)"><rect class="basic label-container" style="fill:#14181e !important;stroke:#f85149 !important;stroke-width:2px !important" x="-91.4296875" y="-24.75" width="182.859375" height="49.5"/><g class="label" style="color:#e6edf3 !important;font-weight:500 !important" transform="translate(-61.4296875, -9.75)"><rect/><foreignObject width="122.859375" height="19.5"><div style="color: rgb(230, 237, 243) !important; font-weight: 500 !important; display: table-cell; white-space: nowrap; line-height: 1.5; max-width: 200px; text-align: center;" xmlns="http://www.w3.org/1999/xhtml"><span style="color:#e6edf3 !important;font-weight:500 !important" class="nodeLabel"><p>!CodeGenerator.Next</p></span></div></foreignObject></g></g><g class="node default riskadded" id="my-svg-flowchart-F6-6" data-look="classic" transform="translate(1491.5390625, 109.375)"><rect class="basic label-container" style="fill:#12221d !important;stroke:#f85149 !important;stroke-width:2px !important" x="-61.078125" y="-24.75" width="122.15625" height="49.5"/><g class="label" style="color:#e6edf3 !important;font-weight:500 !important" transform="translate(-31.078125, -9.75)"><rect/><foreignObject width="62.15625" height="19.5"><div style="color: rgb(230, 237, 243) !important; font-weight: 500 !important; display: table-cell; white-space: nowrap; line-height: 1.5; max-width: 200px; text-align: center;" xmlns="http://www.w3.org/1999/xhtml"><span style="color:#e6edf3 !important;font-weight:500 !important" class="nodeLabel"><p>!saveInvite</p></span></div></foreignObject></g></g><g class="node default" id="my-svg-flowchart-O1-7" data-look="classic" transform="translate(1715.71875, 98.25)"><path d="M0,8.541803818301513 a32.4375,8.541803818301513 0,0,0 64.875,0 a32.4375,8.541803818301513 0,0,0 -64.875,0 l0,43.04180381830152 a32.4375,8.541803818301513 0,0,0 64.875,0 l0,-43.04180381830152" class="basic label-container outer-path" style="fill:#14181e !important;stroke:#383d43 !important;stroke-width:0.75px !important" transform="translate(-32.4375, -30.062705727452272)"/><g class="label" style="color:#e6edf3 !important;font-weight:500 !important" transform="translate(-24.9375, 0.25)"><rect/><foreignObject width="49.875" height="19.5"><div style="color: rgb(230, 237, 243) !important; font-weight: 500 !important; display: table-cell; white-space: nowrap; line-height: 1.5; max-width: 200px; text-align: center;" xmlns="http://www.w3.org/1999/xhtml"><span style="color:#e6edf3 !important;font-weight:500 !important" class="nodeLabel"><p>Output 1</p></span></div></foreignObject></g></g><g class="node default" id="my-svg-flowchart-O2-8" data-look="classic" transform="translate(1715.71875, 322)"><g class="basic label-container outer-path" transform="translate(4.3125,0)"><path d="M-41.0625 -17.25 C-38.337954786848286 -11.800909573696565, -35.613409573696565 -6.35181914739313, -32.4375 0 C-35.35845624780262 5.841912495605237, -38.279412495605236 11.683824991210473, -41.0625 17.25 C-24.021959547231653 17.25, -6.981419094463305 17.25, 32.4375 17.25 C32.4375 9.479366147288204, 32.4375 1.708732294576409, 32.4375 -17.25 C3.9228316010331596 -17.25, -24.59183679793368 -17.25, -41.0625 -17.25" stroke="none" stroke-width="0" fill="#14181e" style="fill:#14181e !important;stroke:#383d43 !important;stroke-width:0.75px !important"/><path d="M-41.0625 -17.25 C-38.37817659746219 -11.88135319492439, -35.69385319492439 -6.5127063898487805, -32.4375 0 M-41.0625 -17.25 C-38.03518300825967 -11.195366016519342, -35.007866016519344 -5.1407320330386845, -32.4375 0 M-32.4375 0 C-34.526149874354225 4.177299748708446, -36.61479974870845 8.354599497416892, -41.0625 17.25 M-32.4375 0 C-35.22641722358314 5.577834447166275, -38.015334447166275 11.15566889433255, -41.0625 17.25 M-41.0625 17.25 C-13.1559145382578 17.25, 14.7506709234844 17.25, 32.4375 17.25 M-41.0625 17.25 C-17.415994928893802 17.25, 6.230510142212395 17.25, 32.4375 17.25 M32.4375 17.25 C32.4375 8.22883636963126, 32.4375 -0.7923272607374798, 32.4375 -17.25 M32.4375 17.25 C32.4375 9.47054485784101, 32.4375 1.6910897156820166, 32.4375 -17.25 M32.4375 -17.25 C9.05518089487241 -17.25, -14.327138210255178 -17.25, -41.0625 -17.25 M32.4375 -17.25 C15.039376089115748 -17.25, -2.358747821768503 -17.25, -41.0625 -17.25" stroke="#383d43" stroke-width="0.75" fill="none" stroke-dasharray="0 0" style="fill:#14181e !important;stroke:#383d43 !important;stroke-width:0.75px !important"/></g><g class="label" style="color:#e6edf3 !important;font-weight:500 !important" transform="translate(-20.625, -9.75)"><rect/><foreignObject width="49.875" height="19.5"><div style="color: rgb(230, 237, 243) !important; font-weight: 500 !important; display: table-cell; white-space: nowrap; line-height: 1.5; max-width: 200px; text-align: center;" xmlns="http://www.w3.org/1999/xhtml"><span style="color:#e6edf3 !important;font-weight:500 !important" class="nodeLabel"><p>Output 2</p></span></div></foreignObject></g></g></g></g><marker id="my-svg_flowchart-v2-pointEnd__3d444d" class="marker flowchart-v2" viewBox="0 0 10 10" refX="5" refY="5" markerUnits="userSpaceOnUse" markerWidth="8" markerHeight="8" orient="auto"><path d="M 0 0 L 10 5 L 0 10 z" class="arrowMarkerPath" style="stroke-width: 1; stroke-dasharray: 1, 0;" stroke="#3d444d" fill="#3d444d"/></marker></g><defs><filter id="my-svg-drop-shadow" height="130%" width="130%"><feDropShadow dx="4" dy="4" stdDeviation="0" flood-opacity="0.06" flood-color="#000000"/></filter></defs><defs><filter id="my-svg-drop-shadow-small" height="150%" width="150%"><feDropShadow dx="2" dy="2" stdDeviation="0" flood-opacity="0.06" flood-color="#000000"/></filter></defs><linearGradient id="my-svg-gradient" gradientUnits="objectBoundingBox" x1="0%" y1="0%" x2="100%" y2="0%"><stop offset="0%" stop-color="#383d43" stop-opacity="1"/><stop offset="100%" stop-color="hsl(96, 0%, 19.8039215686%)" stop-opacity="1"/></linearGradient></svg>